<?xml version="1.0" encoding="UTF-8" standalone="no"?>
<!-- Created with Inkscape (http://www.inkscape.org/) -->

<svg
   xmlns:dc="http://purl.org/dc/elements/1.1/"
   xmlns:cc="http://creativecommons.org/ns#"
   xmlns:rdf="http://www.w3.org/1999/02/22-rdf-syntax-ns#"
   xmlns:svg="http://www.w3.org/2000/svg"
   xmlns="http://www.w3.org/2000/svg"
   xmlns:sodipodi="http://sodipodi.sourceforge.net/DTD/sodipodi-0.dtd"
   xmlns:inkscape="http://www.inkscape.org/namespaces/inkscape"
   id="svg3082"
   version="1.1"
   inkscape:version="0.48.2 r9819"
   width="149.07684"
   height="117.74447"
   sodipodi:docname="sc_businesscards.png">
  <metadata
     id="metadata3088">
    <rdf:RDF>
      <cc:Work
         rdf:about="">
        <dc:format>image/svg+xml</dc:format>
        <dc:type
           rdf:resource="http://purl.org/dc/dcmitype/StillImage" />
        <dc:title></dc:title>
      </cc:Work>
    </rdf:RDF>
  </metadata>
  <defs
     id="defs3086" />
  <sodipodi:namedview
     pagecolor="#ffffff"
     bordercolor="#666666"
     borderopacity="1"
     objecttolerance="10"
     gridtolerance="10"
     guidetolerance="10"
     inkscape:pageopacity="0"
     inkscape:pageshadow="2"
     inkscape:window-width="1366"
     inkscape:window-height="706"
     id="namedview3084"
     showgrid="false"
     fit-margin-top="0"
     fit-margin-left="0"
     fit-margin-right="0"
     fit-margin-bottom="0"
     inkscape:zoom="1.2931507"
     inkscape:cx="-0.04173618"
     inkscape:cy="68.682138"
     inkscape:window-x="-8"
     inkscape:window-y="-8"
     inkscape:window-maximized="1"
     inkscape:current-layer="svg3082" />
  <path
     style="fill:#000000"
     d="M 144.82685,2.8329498e-5 C 140.7515,0.00402833 133.86289,2.8296583 126.57685,7.4687783 112.15762,16.649708 101.24127,24.163428 99.576851,26.062528 c -2.31926,2.64629 -1.60626,2.28596 7.999999,-4.03125 3.85,-2.53182 11.05,-6.90216 16,-9.71875 15.82009,-9.0017597 19.97925,-9.3996297 17.5,-1.65625 -1.78208,5.56591 -7.4931,12.73682 -21.53125,27.125 l -12.40625,12.71875 -0.0312,-6.0625 -0.0312,-6.0625 -10.562499,-6.9375 c -5.81,-3.81787 -11.30326,-7.3875 -12.1875,-7.9375 -0.88423,-0.55 -4.04927,-2.6936 -7.0625,-4.75 l -5.5,-3.71875 -3.59375,2.125 c -1.98004,1.17866 -5.84375,3.60906 -8.59375,5.375 -2.75,1.76594 -6.35,3.9614 -8,4.875 -1.65,0.9136 -4.8,2.78321 -7,4.15625 -2.2,1.37304 -5.0125,2.99906 -6.25,3.625 -2.22489,1.12522 -2.23765,1.36156 -2.21875,21.71875 l 0,20.59375 10.96875,6.90625 c 10.25292,6.4595 10.80376,6.9728 8.71875,8.0625 -1.22579,0.64064 -6.87816,3.9988 -12.5625,7.4375 -23.05641,13.947792 -38.1562501,18.286432 -38.1562501,10.968752 0,-5.25867 8.0459401,-17.496262 20.7812501,-31.625002 4.58575,-5.0875 7.83269,-9.25 7.25,-9.25 -2.03494,0 -14.77496,13.58664 -22.40625,23.875 -10.13286012,13.660912 -12.5960901,19.679222 -9.3750001,23.000002 1.72169,1.77498 10.0809601,0.73749 18.0000001,-2.25 6.32069,-2.3845 21.60795,-9.59036 25.1875,-11.875 1.07034,-0.68314 5.07041,-3.188582 8.875,-5.562502 l 6.90625,-4.3125 5.375,3.5625 c 2.95411,1.96142 5.82627,3.562502 6.375,3.562502 0.54873,0 6.0528,-3.313092 12.25,-7.343752 6.19723,-4.03066 13.37167,-8.537 15.937499,-10.03125 2.56583,-1.49426 5.14504,-3.27747 5.71875,-3.96875 0.57372,-0.69129 1.2018,-6.11477 1.40625,-12.03125 l 0.375,-10.75 8.5,-8.6875 c 21.83956,-22.33978 32.84375,-37.3490097 32.84375,-44.7812497 0,-2.17755997 -0.42117,-2.40924997 -4.25,-2.406249970502 z M 70.733101,19.343778 c 1.39897,0.0834 6.92449,3.17452 14.0625,7.875 7.02705,4.62742 14.19373,9.26265 15.937499,10.28125 l 3.1875,1.84375 -2.1875,1.625 c -1.19377,0.9023 -8.006249,5.18102 -15.156249,9.5 -7.15,4.31897 -13.25823,7.97344 -13.5625,8.125 -0.30427,0.15155 -4.57927,-2.29781 -9.5,-5.4375 -4.92073,-3.1397 -12.21061,-7.66105 -16.21875,-10.0625 -4.00814,-2.40145 -7.15814,-4.72254 -7,-5.15625 0.29387,-0.80596 27.4983,-17.51856 30.21875,-18.5625 0.0559,-0.0215 0.12549,-0.0368 0.21875,-0.0312 z m -30.78125,22.65625 c 0.47583,0 1.93833,0.79871 3.25,1.78125 1.31167,0.98255 7.91869,5.12539 14.6875,9.1875 6.76881,4.06212 12.78188,8.26674 13.375,9.375 1.27728,2.38663 0.41551,18.24395 -1.09375,20.0625 -0.54816,0.6605 -2.96425,2.61247 -5.375,4.34375 l -4.40625,3.15625 -3.40625,-2.375 c -1.87658,-1.29672 -6.66875,-4.41763 -10.65625,-6.9375 l -7.25,-4.59375 0,-17 c 0,-9.35361 0.39917,-17 0.875,-17 z m 31.125,43.03125 0,5.46875 c 0,3.01978 -0.1125,5.48135 -0.25,5.46875 -0.86212,-0.0792 -7.74975,-4.45482 -7.71875,-4.90625 0.0209,-0.30439 1.82087,-1.80522 4,-3.3125 l 3.96875,-2.71875 z"
     id="path3092"
     inkscape:connector-curvature="0" />
</svg>
