<?xml version="1.0" encoding="UTF-8" standalone="no"?>
<!-- Created with Inkscape (http://www.inkscape.org/) -->
<svg xmlns:svg="http://www.w3.org/2000/svg" xmlns="http://www.w3.org/2000/svg" version="1.0" width="500" height="499.99997" id="svg2">
  <defs id="defs4"/>
  <g transform="translate(-2.07591, -3.31351)" id="layer1">
    <path d="M 390.42439 244.34138 A 140.71133 122.87468 0 1 1  109.00172,244.34138 A 140.71133 122.87468 0 1 1  390.42439 244.34138 z" transform="matrix(1.42135, 0, 0, 1.62768, -104.93, -147.708)" style="opacity: 1; fill: rgb(255, 255, 255); fill-opacity: 1; fill-rule: nonzero; stroke: none; stroke-width: 2; stroke-linecap: butt; stroke-linejoin: miter; stroke-miterlimit: 4; stroke-dasharray: none; stroke-dashoffset: 0pt; stroke-opacity: 1;" id="path6586"/>
    <path d="M 355.97965,502.96315 L 149.01798,503.31349 L 2.426255,357.21724 L 2.0759107,150.25558 L 148.17217,3.663855 L 355.13383,3.3135071 L 501.72556,149.40976 L 502.0759,356.37144 L 355.97965,502.96315 z " style="fill: rgb(255, 0, 0); fill-opacity: 1; fill-rule: evenodd; stroke: none; stroke-width: 0.6; stroke-linecap: round; stroke-linejoin: round; stroke-miterlimit: 4; stroke-dashoffset: 0pt; stroke-opacity: 1;" id="path2180"/>
    <path d="M 348.00239,483.79619 L 156.9303,484.11963 L 21.593215,349.23999 L 21.269769,158.1679 L 156.14942,22.830815 L 347.22151,22.507365 L 482.5586,157.38701 L 482.88204,348.45912 L 348.00239,483.79619 z " style="fill: none; fill-opacity: 1; fill-rule: evenodd; stroke: rgb(255, 255, 255); stroke-width: 10; stroke-linecap: round; stroke-linejoin: round; stroke-miterlimit: 4; stroke-dasharray: none; stroke-dashoffset: 0pt; stroke-opacity: 1;" id="path2175"/>
    <path d="M 66.56377,305.45589 L 83.11464,290.05863 C 87.091099,294.73692 88.368109,295.67905 91.378889,296.99063 C 96.360179,299.16121 101.45892,299.67532 107.79367,299.67532 C 114.50312,299.67532 119.55899,295.88225 122.95939,292.36545 C 126.36166,288.85096 128.06186,284.7384 128.06186,280.03009 C 128.06186,277.00976 127.34785,274.43739 125.9161,272.31761 C 124.48435,270.19552 121.98625,268.35053 118.41993,266.78032 C 115.98148,265.73429 110.4204,263.87544 101.74229,261.20147 C 90.575389,257.77242 82.73992,253.56057 78.23588,248.56131 C 71.90114,241.53002 68.73377,232.95854 68.73377,222.84687 C 68.73377,216.33744 70.22331,210.25058 73.20425,204.58399 C 76.18333,198.91739 80.47485,194.60394 86.082539,191.63902 C 91.688349,188.67641 98.457469,187.19395 106.38615,187.19395 C 119.33528,187.19395 129.08347,190.70844 135.62888,197.74204 C 142.17242,204.77334 137.45212,199.28454 143.05794,206.70377 L 125.58613,215.99569 C 122.05523,213.98675 122.06268,214.3031 119.3707,212.86452 C 115.74845,210.92947 112.04044,208.55107 106.17549,208.55107 C 100.12225,208.55107 95.383309,210.09125 91.958669,213.17163 C 89.753259,215.14593 88.651479,217.78988 88.651479,221.10348 C 88.651479,224.12613 89.684279,226.71235 91.748009,228.86215 C 94.374749,231.59385 100.7561,234.441 110.8902,237.40361 C 121.02429,240.36853 128.52047,243.43274 133.37686,246.60086 C 138.23138,249.76898 142.0326,254.0986 144.77678,259.5897 C 147.52097,265.08081 148.89493,271.86502 148.89493,279.94466 C 148.89493,287.2669 147.25252,294.125 143.9677,300.51667 C 140.68288,306.90833 136.03901,311.66051 130.03238,314.7686 C 124.02761,317.87899 116.54449,319.43304 107.583,319.43304 C 94.538799,319.43304 84.04304,315.81925 76.33247,311.82908 L 66.56377,305.45589 z M 189.78366,317.16547 L 189.78366,210.99181 L 159.16884,210.99181 L 159.16884,189.37377 L 241.15884,189.37377 L 241.15884,210.99181 L 210.61486,210.99181 L 210.61486,317.16547 L 189.78366,317.16547 z M 243.72965,254.05472 C 243.72965,241.03587 245.30122,230.11139 248.44435,221.27667 C 250.79145,214.76955 253.99238,208.92745 258.05087,203.75501 C 262.10935,198.58487 266.55561,194.74941 271.38776,192.24863 C 277.81571,188.87961 285.228,187.19395 293.62647,187.19395 C 308.82948,187.19395 320.99189,193.03373 330.11743,204.71561 C 339.24296,216.39517 343.80666,232.63988 343.80666,253.4428 C 343.80666,274.07485 339.27838,290.21565 330.22369,301.86751 C 321.169,313.51936 309.06252,319.34529 293.90797,319.34529 C 278.56701,319.34529 266.36732,313.54938 257.31262,301.95525 C 248.25793,290.36113 243.72965,274.39351 243.72965,254.05472 L 243.72965,254.05472 z M 265.1947,253.18187 C 265.1947,267.65317 267.89228,278.62153 273.28743,286.08924 C 278.68446,293.55696 285.53374,297.29082 293.839,297.29082 C 302.1424,297.29082 308.95812,293.58698 314.28243,286.17699 C 319.60861,278.767 322.27077,267.65317 322.27077,252.8332 C 322.27077,238.18871 319.67946,227.26423 314.49496,220.05745 C 309.31046,212.85066 302.4239,209.24842 293.839,209.24842 C 285.25223,209.24842 278.33211,212.89453 273.07677,220.18676 C 267.82144,227.48129 265.1947,238.47966 265.1947,253.18187 L 265.1947,253.18187 z M 358.55479,317.16547 L 358.55479,189.37377 L 391.98278,189.37377 C 404.6504,189.37377 412.90905,190.01109 416.75501,191.29034 C 422.66844,193.20923 427.61804,197.3772 431.60568,203.79888 C 435.59334,210.22057 437.58804,218.51726 437.58804,228.68665 C 437.58804,236.53307 436.43784,243.12793 434.13921,248.47587 C 431.84058,253.8215 428.91929,258.01949 425.3772,261.07216 C 421.83511,264.12252 418.23337,266.143 414.57383,267.129 C 409.6,268.35053 402.39838,268.96014 392.96897,268.96014 L 379.386,268.96014 L 379.386,317.16547 L 358.55479,317.16547 z M 379.386,210.99181 L 379.386,247.25434 L 390.78592,247.25434 C 398.99797,247.25434 404.48634,246.58701 407.25476,245.25002 C 410.02318,243.91304 412.19318,241.82097 413.76475,238.97382 C 415.33632,236.12666 416.12303,232.81306 416.12303,229.03533 C 416.12303,224.38706 415.01939,220.5516 412.81398,217.52895 C 410.61043,214.50631 407.81777,212.61975 404.43974,211.86236 C 401.95282,211.28276 396.95661,210.99181 389.44925,210.99181 L 379.386,210.99181 z " style="font-size: 0.773138px; font-style: normal; font-variant: normal; font-weight: bold; font-stretch: normal; text-align: start; line-height: 125%; text-anchor: start; fill: rgb(255, 255, 255); fill-opacity: 1; font-family: Arial;" id="flowRoot3488"/>
  </g>
</svg>